<svg id="face" xmlns="http://www.w3.org/2000/svg" width="686.566" height="907.815" viewBox="0 0 686.566 907.815">
  <g id="Me_wpap">
    <g id="Layer_2" data-name="Layer 2">
      <g id="Layer_4" data-name="Layer 4">
        <path id="Path_1" data-name="Path 1" d="M227.25,955.578,196.13,966.994,175.2,956.529l-20.93-37.1,6.66-28.541,63.742-68.5L277,766.254l76.11-40.909L458.71,693l89.429-5.708,58.034,36.152L693.7,770.06l37.1,46.617,19.979,37.1,3.805,32.347L737.462,900.4l-30.444-3.263L227.25,955.578" transform="translate(-80.886 -360.355)" fill="#fff"/>
        <path id="Path_2" data-name="Path 2" d="M458.554,838.471l-42.122,35.1-30.691,30.953-67.177,79.368-10.874,36.7,55.032,194.822,158.394,117.723,107.739-15.693,36.39-27.114,74.916-99.176,39.24-84.192-.714-59.936,8.772-84.877-101.8-108.366-13.729-13.952L617.567,811.29l-67.952,2.716-42.1,11.312Z" transform="translate(-161.326 -425.37)" fill="#fff"/>
        <path id="Path_3" data-name="Path 3" d="M948.27,1055.393l7.135,5.946,47.093,7.849,24.736-6.979,13.319-11.735,1.265-10.779-6.659-.319-12.682-4.757-1.9.319-45.666,3.487-12.054,8.244Z" transform="translate(-497.19 -542.465)" fill="#fff"/>
        <path id="Path_4" data-name="Path 4" d="M319.925,1000.2l-1.361-16.311,82.908-97.854,14.96-12.468,42.122-35.1,48.958-13.153,42.1-11.312,67.952-2.716,54.366,28.541,53.006,53.006,47.569,46.208,14.951,23.1-2.721,33.978,14.951,25.82-5.437,33.978-20.388-5.437,5.437,59.8-46.208,95.138-59.8,80.187-36.7,29.9L511.56,1333.185l-46.213-28.541-97.853-77.47-40.776-119.6-19.028-86.979Z" transform="translate(-161.326 -425.37)" fill="#fff"/>
        <path id="Path_5" data-name="Path 5" d="M307.69,1123.379l19.356,20.017,3.748-43.8,23.47-28.68,32.5,7.292,28.541,9.357,26.8-2.7-34.725,5.551,35.044-3.805,19.979-5.39,18.713-13.638-17.919,11.26-38.374,5.551L401.99,1075.2l8.562-11.1,9.671,2.378,5.394.628-2.7,10.783,4.6-9.989h5.389l-3.33,5.39,2.378,11.1,4.124-14.271,2.221,7.292-.633-7.135,4.757-.319,3.011,9.2.794-10.784,2.535,9.2,2.06-9.2,7.454,8.729-2.535-8.882,3.173-1.108,10.146-3.33,5.551-1.427,8.881-1.746,12.044-5.39,4.6-6.027-16.492-13.162-7.768-3.644-1.584-6.978-.633,6.341-1.746-5.708-.794,5.075-3.011-.319-.476-5.076-1.584-1.745.319,2.379-.633,2.535-3.487-1.109.476-1.9-1.427-1.746-.319,3.648-1.27-.157-.319-6.341-1.9,4.914h-.633l.794-6.816-3.33,6.027-1.108.476.319-9.195-2.7,7.93-6.184.633-2.06-6.5-.951,5.551-1.9-.632-.157-8.087-1.9,9.2-4.6.794-4.914-6.659s.951,4.757.951,5.233-2.06,1.427-2.06,1.427l-4.914-6.816,2.045,7.925-1.427.319-4.6-5.076v6.5l-35.358-6.5,2.935-14.589-38,45.471-26.4,29.255-4.281,27.114Z" transform="translate(-161.326 -528.156)" fill="#fff"/>
        <path id="Path_6" data-name="Path 6" d="M627.37,840.78l3.334,6.664,12.606,7.373-16.411,22.6-24.736-7.849L593.6,883.359l23.309,22.833-7.373,3.568-7.849-4.519-18.314,4.281L539.61,892.635l-3.32-3.6,42.122-35.1Z" transform="translate(-281.184 -440.832)" fill="#fff"/>
        <path id="Path_7" data-name="Path 7" d="M936.27,1038.259l17.439-17.125,6.978-3.487-3.487-4.124,5.071,3.806,3.173-1.584-5.39-6.66,8.244,5.708,1.27-1.584-4.757-4.757,6.974,4.438.637-1.584-3.805-5.394,6.973,4.443,1.589-2.221-3.491-5.076,6.66,5.708,5.076-.314-1.27-7.3,6.027,6.345V998.62l2.535,7.292,1.589-2.536,3.168,5.389,7.611-4.438-.314,3.173,8.562,1.265,9.828.637,7.3,1.265,1.9-2.535,1.9,6.341,5.708-2.854,2.535-7.292,1.584,5.39-4.438,5.394,6.027-3.173,3.487-1.584-5.709,6.66,4.125.633,2.536-5.39-.951,7.611,5.708-5.394-4.438,6.027,5.708-3.487-2.54,4.119L1059,1018.6l-3.173,5.708,11.735-1.584-16.173,5.708,5.39,4.119.952,12.054-4.124-10.465-5.708-6.346-7.292,1.9,7.93,2.221,3.806,7.611-6.66-6.66H1038.7l7.292,4.438,2.854,6.346-6.341-6.027-4.757-1.27,3.806,3.173.633,2.221-4.438-3.491-2.854-.632-5.389,3.487,7.611,2.54.951,5.389-3.173-3.805-8.562-1.584-2.535,1.584,5.39,8.881-6.978-7.3-4.757,1.27,4.124,9.2-6.027-7.292h-2.854l4.124,6.979-.951,2.216-4.438-7.925h-3.173l.319,7.925-1.9-6.973h-3.492v7.611l-2.217-7.611-3.491-.319.951,6.341-3.805-5.389h-2.536l-.951,8.881-1.9-8.563-3.806-.951-1.9,8.876-.633-10.147H979.4l-4.757,7.93,1.9-9.513-25.368-3.806-8.244-4.757h15.222l14.9,5.071,23.152,4.443,24.736-6.978,13.319-11.736,1.265-10.779-6.66-.319-12.682-4.757-1.9.319-4.124,20.293-9.2,8.881-12.054,2.221-18.076-10.784-2.217-17.125-12.054,8.243.951,6.979-9.828,3.487Z" transform="translate(-490.899 -523.59)" fill="#fff"/>
        <path id="Path_8" data-name="Path 8" d="M937.6,1021.415l10.465-2.535,9.514-12.368,13.952-7.3,7.93-2.854,19.66-2.535,24.736.319,23.47,9.2,4.119-.633-26.32-10.784-26.957-.633-20.611,2.854-10.465,3.806-12.368,6.66Z" transform="translate(-491.596 -519.746)" fill="#fff"/>
        <path id="Path_9" data-name="Path 9" d="M963.6,1103.29l23.466,15.222,39.643,6.341-39.325-7.93Z" transform="translate(-505.228 -578.469)" fill="#fff"/>
        <path id="Path_10" data-name="Path 10" d="M725.832,1007.29,752,1028.7l-19.028,37.1-15.7,5.708,8.562-32.822Z" transform="translate(-376.074 -528.135)" fill="#fff"/>
        <path id="Path_11" data-name="Path 11" d="M741.266,1066.29l1.427,157.928-12.843-4.757-24.736,8.086,19.027-11.892-5.232-19.979-18.552-2.378-8.087,10.941,9.038-47.093,22.833-26.163,10.941-29.493-27.59,22.357,5.232-19.5,21.406-19.5Z" transform="translate(-362.966 -559.07)" fill="#fff"/>
        <path id="Path_12" data-name="Path 12" d="M852.27,1407.842l19.979-14.746,12.368-3.806,18.076,5.233-.476,7.135-14.746,6.66,9.99-7.611-17.6-3.805-9.514.952Z" transform="translate(-446.856 -728.423)" fill="#fff" stroke="#fff" stroke-miterlimit="10" stroke-width="1"/>
        <path id="Path_13" data-name="Path 13" d="M717.27,1405.377l13.8-6.66,15.7-1.427,18.076,12.368,6.184,2.379-8.087,3.805-18.076-7.135Z" transform="translate(-376.074 -732.617)" fill="#fff" stroke="#fff" stroke-miterlimit="10" stroke-width="1"/>
        <path id="Path_14" data-name="Path 14" d="M790.7,1109.481l-10.941-17.191,1.9,45.19-5.233,46.142-6.184,66.6-16.649,49-44.714,76.11L683.2,1363.907l-29.968,23.309-.951,29.017-60.412,25.687-58.034,2.854-30.444-21.881-18.552-37.1,21.406-.951,29.493-4.757,32.822,5.708,36.628-4.281,19.979-20.931-34.249,9.514-23.309-.475-21.882,1.9-38.531-14.271-20.93-20.455,39.006-9.99,39.482,2.854,24.26-4.757h32.347l36.152,5.708,2.379-7.135-39.007-6.66-30.444-12.367-28.541,7.135-23.309-3.806-36.628,12.844,23.784-10.941,19.028-9.99,19.028,2.854,30.444-.952,4.757,5.233H611.37l32.347,13.32,25.687,13.794,10.941,19.5,12.844-15.222-1.427-22.357-27.114-18.076-52.326-20.455-36.628-17.125-13.319,12.368-4.757-7.611H545.249l-9.038-9.989-41.861-6.184-3.805-22.833-3.33,26.163,40.909,10.465-33.774,27.59-45.19,3.33-21.406,15.222-33.3-12.844-49-145.084-3.33-29.493-20.321,9.918,1.36,16.311-8.577,13.291-.713,19.979,24.974,101.312,27.114,80.629,47.8,47.088,70.64,52.088,39.953,18.547L632.1,1464.776l36.39-27.114,74.916-99.176,39.24-84.192-.714-59.937Z" transform="translate(-164.571 -572.702)" fill="#fff"/>
        <path id="Path_15" data-name="Path 15" d="M506.93,1067.145l9.832,13.638,23.466,8.244,25.687-2.535,13.005-5.708,7.292-.637,3.173-9.513-18.714-12.368-24.736-6.974-21.706,7.511-3.03,1.052Z" transform="translate(-265.79 -551.205)" fill="#fff" stroke="#231f20" stroke-miterlimit="10" stroke-width="1"/>
        <path id="Path_16" data-name="Path 16" d="M576.108,1086.8l4.119-3.168,5.708-4.443,4.443-12.049-.637-8.881-24.736-6.974L543.3,1058.8l.143,14.052,8.881,10.465,6.022,3.173,6.346,1.584Z" transform="translate(-284.859 -551.205)" fill="#fff" stroke="#231f20" stroke-miterlimit="10" stroke-width="1"/>
        <path id="Path_17" data-name="Path 17" d="M1300.27,1184.97l31.076-23.152,6.978-30.125-30.444-3.263Z" transform="translate(-681.749 -591.651)" fill="#fff"/>
        <path id="Path_18" data-name="Path 18" d="M242.27,1254.884l9.514,16.173,34.249,10.465-8.981-45.152Z" transform="translate(-127.025 -648.245)" fill="#fff"/>
        <path id="Path_19" data-name="Path 19" d="M133.529,582.441l7.016-70.968L127.7,475.792,112,411.57l-9.989-147,10.17-24.089,52.088-44.952,10.7-31.391,31.391-31.4h38.531l23.546-7.849L383.17,106.145l162.7-7.135,42.926,26.6,7.849,18.552,31.4,2.141,86.242,61.178,24.26,172.694-15.16,165.168-19.979-37.1-37.1-46.617L578.772,415l-58.034-36.152-89.429,5.708L325.707,416.9,249.6,457.811Z" transform="translate(-53.485 -51.912)" fill="#fff" stroke="#0b3150" stroke-miterlimit="10" stroke-width="3"/>
        <path id="Path_20" data-name="Path 20" d="M48.525,212.656,58.7,188.567l28.541-24.26,23.547-20.692,10.7-31.391,31.391-31.4h38.531L201.4,75.12l13.557-2.141L209.8,42.817,142.72,0,44.244,5.708,0,61.368,2.854,166.985Z" fill="#fff"/>
        <path id="Path_21" data-name="Path 21" d="M1035.1,58.108l42.926,26.6,7.849,18.552,31.4,2.141,86.242,61.178-31.4-98.477L1097.9,21l-35.682,11.421Z" transform="translate(-542.717 -11.011)" fill="#fff"/>
        <path id="Path_22" data-name="Path 22" d="M435.38,209.44l78.484,34.245,67.067,4.281,73.489-32.818,32.822-22.833-20.692-24.26L563.093,160.92,485.322,175.9Z" transform="translate(-228.275 -84.372)" fill="#fff"/>
        <path id="Path_23" data-name="Path 23" d="M753.224,505.9q.272,3.472.476,6.95c.147,2.317.252,4.633.376,6.95l.3,6.955.252,6.954v-.086l.913,5.884.875,5.889q.442,2.945.847,5.894c.276,1.965.552,3.929.8,5.9l-.642-.476c2.854-.428,5.708-.828,8.6-1.222l4.305-.561q2.155-.276,4.314-.519-2.122.476-4.248.909l-4.257.866c-2.854.557-5.68,1.108-8.529,1.631l-.547.1-.1-.566c-.343-1.955-.657-3.915-.98-5.875s-.642-3.92-.951-5.88l-.9-5.875-.87-5.889v-.086l-.1-6.959-.052-6.959v-6.959C753.1,510.552,753.162,508.221,753.224,505.9Z" transform="translate(-394.86 -265.25)" fill="#fff"/>
        <path id="Path_24" data-name="Path 24" d="M508.87,531.4c4.224,2.017,8.42,4.1,12.625,6.151s8.382,4.172,12.572,6.255,8.382,4.172,12.549,6.3,8.353,4.229,12.515,6.37l-.09-.038q8.753,3,17.481,6.07l8.729,3.068,8.719,3.092-.171-.033,17.829.951,8.91.523q4.457.261,8.91.561-4.467-.048-8.929-.152l-8.924-.19-17.848-.476h-.081l-.09-.028-8.762-2.973-8.753-3q-8.748-3.006-17.482-6.06h-.091q-6.241-3.216-12.458-6.474c-4.153-2.155-8.286-4.353-12.425-6.545s-8.282-4.367-12.4-6.588S512.97,533.664,508.87,531.4Z" transform="translate(-266.807 -278.62)" fill="#fff"/>
        <path id="Path_25" data-name="Path 25" d="M820.86,570.519c2.074-1.094,4.176-2.131,6.279-3.173s4.215-2.046,6.336-3.044,4.248-1.974,6.374-2.964l6.407-2.9-.114.062,5.708-3.891c1.9-1.275,3.834-2.573,5.775-3.805s3.877-2.512,5.822-3.753,3.915-2.459,5.9-3.639c-1.812,1.427-3.663,2.821-5.508,4.21s-3.715,2.745-5.589,4.1-3.758,2.683-5.642,4.024L846.9,559.7l-.052.038-.062.029-6.436,2.821c-2.155.913-4.281,1.855-6.469,2.745s-4.333,1.789-6.508,2.664S823.062,569.711,820.86,570.519Z" transform="translate(-430.388 -284.917)" fill="#fff"/>
        <path id="Path_26" data-name="Path 26" d="M323.868,240.4l-4.995-14.984-17.125,1.427-17.125,8.562-14.271,15.7,2.854,4.99-8.562,3.568-2.854,7.849-9.276,17.125-7.844,12.844-4.281,36.39,11.417,11.412-4.281,32.109,1.427,9.276-2.854,24.26,1.427,28.536,8.558,18.552,21.406,12.844,16.411,1.427,19.979-7.135,20.692-10.7-22.833-17.125-20.692-40.667-11.416-34.249,4.995-49.229,18.552-46.38Z" transform="translate(-126.04 -118.191)" fill="#fff"/>
        <path id="Path_27" data-name="Path 27" d="M1072.485,226.758l24.969,34.958,20.693,39.244,3.568,27.114-10.7,43.521-18.552,35.677-27.109,24.969,61.359,12.13,29.255-2.854,25.683-25.682,7.135-37.817-9.276-47.088-23.542-53.515L1131.7,233.18l-22.833-16.411-19.979-7.849Z" transform="translate(-558.577 -109.54)" fill="#fff"/>
        <path id="Path_28" data-name="Path 28" d="M327.875,358.79l-4.995-17.838,8.562-23.547,14.984-4.995Z" transform="translate(-169.29 -163.801)" fill="#fff" stroke="#fff" stroke-miterlimit="10" stroke-width="4"/>
        <path id="Path_29" data-name="Path 29" d="M1108.84,283.92l13.557.714,18.552,12.839,5.708,18.552-5.708,24.26-20.692-39.244Z" transform="translate(-581.379 -148.863)" fill="#fff" stroke="#fff" stroke-miterlimit="10" stroke-width="4"/>
        <path id="Path_30" data-name="Path 30" d="M952.317,853.783l-15.222,14.271L891.742,880.74l-40.909,14.9-10.779-19.027,13.633-49.79-37.418-12.82,67.952-2.716,54.366,28.541Z" transform="translate(-427.981 -425.37)" fill="#fff"/>
        <path id="Path_31" data-name="Path 31" d="M694.27,945.966l1.584-11.417,6.027-7.93-4.124,12.368v11.1Z" transform="translate(-364.015 -485.839)" fill="#fff" stroke="#fff" stroke-miterlimit="10" stroke-width="1"/>
        <path id="Path_32" data-name="Path 32" d="M681.6,938.761l2.222-16.811.951,19.346Z" transform="translate(-357.372 -483.391)" fill="#fff" stroke="#fff" stroke-miterlimit="10" stroke-width="1"/>
        <path id="Path_33" data-name="Path 33" d="M671.6,930.858l2.221-12.368,4.12-2.54-3.487,6.027,1.9,13.638Z" transform="translate(-352.129 -480.245)" fill="#fff" stroke="#fff" stroke-miterlimit="10" stroke-width="1"/>
        <path id="Path_34" data-name="Path 34" d="M690.93,932.636l1.27-12.049,7.93-.637-6.027,3.173-2.221,13.952Z" transform="translate(-362.264 -482.342)" fill="#fff" stroke="#fff" stroke-miterlimit="10" stroke-width="1"/>
        <path id="Path_35" data-name="Path 35" d="M663.6,923.085l1.584-7.292,8.562-3.173-7.611,4.438-.314,10.784Z" transform="translate(-347.934 -478.499)" fill="#fff" stroke="#fff" stroke-miterlimit="10" stroke-width="1"/>
        <path id="Path_36" data-name="Path 36" d="M735.86,876.62l-8.881,7.93L720,899.772l1.589-7.3-6.027,8.881,1.584-8.881-4.757,9.514-4.119,9.2,1.584,13,2.221-6.66v7.93l1.9-15.859,2.535-6.66-1.584,17.125L718.1,902.94l-.314,15.86,6.974-13.957-3.487,15.222,5.708-13.633-2.535,9.828,4.438.637,5.708-13.005,2.854-.952,3.173-6.659-4.443,4.757-3.487.319,4.438-9.514-3.806,2.222,8.563-13.319-11.417,10.779-7.925,11.735,8.562-15.541Z" transform="translate(-371.355 -459.623)" fill="#fff" stroke="#fff" stroke-miterlimit="10" stroke-width="1"/>
        <path id="Path_37" data-name="Path 37" d="M799.519,914.62l-2.854,9.195-5.708,5.708-6.027,12.054,6.346-14.59,4.119-3.173Z" transform="translate(-411.549 -479.547)" fill="#fff" stroke="#fff" stroke-miterlimit="10" stroke-width="1"/>
        <path id="Path_38" data-name="Path 38" d="M822.762,904.62l-5.708,8.562-2.222,6.978-1.265,10.146-.637-9.832,1.827-6.379,2.022-5.47Z" transform="translate(-426.23 -474.304)" fill="#fff" stroke="#fff" stroke-miterlimit="10" stroke-width="1"/>
        <path id="Path_39" data-name="Path 39" d="M820.017,931.678,819.3,938.1l-1.784,3.924,5.351-8.919-.714-6.065Z" transform="translate(-428.637 -486.059)" fill="#fff" stroke="#fff" stroke-miterlimit="10" stroke-width="1"/>
        <path id="Path_40" data-name="Path 40" d="M813.27,989.352l.476-8.562.238,9.752Z" transform="translate(-426.408 -514.241)" fill="#fff" stroke="#fff" stroke-miterlimit="10" stroke-width="1"/>
        <path id="Path_41" data-name="Path 41" d="M837.405,967.536l-5.708-9.989.476-4.757-1.9,5.946Z" transform="translate(-435.321 -499.56)" fill="#fff" stroke="#fff" stroke-miterlimit="10" stroke-width="1"/>
        <path id="Path_42" data-name="Path 42" d="M830.149,983.255l-.238-5.47-2.14-4.995L833,980.4l-2.141-1.189Z" transform="translate(-434.011 -510.047)" fill="#fff" stroke="#fff" stroke-miterlimit="10" stroke-width="1"/>
        <path id="Path_43" data-name="Path 43" d="M850.411,923.79l-1.189,10.227-.952-8.8Z" transform="translate(-444.759 -484.355)" fill="#fff" stroke="#fff" stroke-miterlimit="10" stroke-width="1"/>
        <path id="Path_44" data-name="Path 44" d="M842.673,921.79l-1.9.714,1.9,12.844Z" transform="translate(-440.827 -483.307)" fill="#fff" stroke="#fff" stroke-miterlimit="10" stroke-width="1"/>
        <path id="Path_45" data-name="Path 45" d="M768.338,932.852v6.9h.951l4.281-6.9,10.7-8.562-10.465,9.751-5.233,9.989L764.77,947.6l4.043-5.708-2.616-2.378Z" transform="translate(-400.979 -484.617)" fill="#fff" stroke="#fff" stroke-miterlimit="10" stroke-width="1"/>
        <path id="Path_46" data-name="Path 46" d="M778.77,917.871l1.665-2.616,4.995-2.379,6.422-8.087-6.422,10.941h-2.854Z" transform="translate(-408.319 -474.393)" fill="#fff" stroke="#fff" stroke-miterlimit="10" stroke-width="1"/>
        <path id="Path_47" data-name="Path 47" d="M867.27,885.266v10.941l1.9-11.416Z" transform="translate(-454.721 -463.907)" fill="#fff" stroke="#fff" stroke-miterlimit="10" stroke-width="1"/>
        <path id="Path_48" data-name="Path 48" d="M859.233,916.29,858.6,925.8l1.746.951Z" transform="translate(-450.175 -480.423)" fill="#fff"/>
        <path id="Path_49" data-name="Path 49" d="M859.233,942.587l-.632,13,1.584,1.746-.79-15.384Z" transform="translate(-450.175 -493.877)" fill="#fff"/>
        <path id="Path_50" data-name="Path 50" d="M843.27,953.62l.789,5.389,5.551,6.978-4.914-7.93Z" transform="translate(-442.138 -499.996)" fill="#fff"/>
        <path id="Path_51" data-name="Path 51" d="M877.27,886.29l.632,12.682,1.27-2.535Z" transform="translate(-459.964 -464.694)" fill="#fff"/>
        <path id="Path_52" data-name="Path 52" d="M881.6,870.923l.476,12.686,1.584-2.7L881.6,870.29Z" transform="translate(-462.234 -456.304)" fill="#fff"/>
        <path id="Path_53" data-name="Path 53" d="M825.605,869.62l-4.281,4.124-.319,5.389-5.076,3.649,6.184-2.854-.157-5.394Z" transform="translate(-427.803 -455.953)" fill="#fff"/>
        <path id="Path_54" data-name="Path 54" d="M794.065,890.29l-1.9,3.168-2.535-1.427v3.649l-2.7,5.865,5.708-7.449Z" transform="translate(-412.598 -466.791)" fill="#fff"/>
        <path id="Path_55" data-name="Path 55" d="M823.087,891.29l-6.817,6.341.79,4.6.476-4.281Z" transform="translate(-427.981 -467.315)" fill="#fff"/>
        <path id="Path_56" data-name="Path 56" d="M801.054,959.95,793.6,971.367l9.514-10.622Z" transform="translate(-416.095 -503.314)" fill="#fff"/>
        <path id="Path_57" data-name="Path 57" d="M798.335,953.95l-2.535.637-5.87,8.876,6.184-6.817,3.173-2.06Z" transform="translate(-414.171 -500.168)" fill="#fff"/>
        <path id="Path_58" data-name="Path 58" d="M838.027,889.62l-1.113,8.72-3.644,6.5,5.071-6.027Z" transform="translate(-436.894 -466.439)" fill="#fff"/>
        <path id="Path_59" data-name="Path 59" d="M854.535,888.447l-1.265,5.865,2.378-6.022Z" transform="translate(-447.381 -465.742)" fill="#fff"/>
        <path id="Path_60" data-name="Path 60" d="M851.135,904.62l-1.9.157-.633,5.708,1.746-1.265Z" transform="translate(-444.932 -474.304)" fill="#fff"/>
        <path id="Path_61" data-name="Path 61" d="M782.6,890.1l.157,5.39,1.113-5.865Z" transform="translate(-410.328 -466.439)" fill="#fff"/>
        <path id="Path_62" data-name="Path 62" d="M580.678,1048.508l4.519-4.4-14.627-12.963-21.406-10.584-25.449-2.022-39.958,1.784-14.865,4.281-3.292,3.168,35.358,6.5-18.033-6.817,20.692-4.638,17.719-.832,12.962.832,12.487,3.092,21.406,12.13,8.919,7.611Z" transform="translate(-244.12 -534.034)" fill="#fff" stroke="#000" stroke-miterlimit="10" stroke-width="1"/>
        <path id="Path_63" data-name="Path 63" d="M255.642,1256.349l4.995,13.552,13.557,1.427,11.84,10.194-8.986-45.152-34.778,18.514Z" transform="translate(-127.025 -648.245)" fill="#fff" opacity="0.24"/>
        <path id="Path_64" data-name="Path 64" d="M1309.1,1170.5l10.7-7.849v-10.7l8.563-.714,1.427-13.557,8.534-5.984-30.444-3.263-7.611,56.54Z" transform="translate(-681.749 -591.651)" fill="#fff" opacity="0.24"/>
        <path id="Path_65" data-name="Path 65" d="M465.6,1037.6l19.66,22.2,17.3-8.344-1.6-7.354-18.033-6.816Z" transform="translate(-244.12 -543.865)" fill="#fff"/>
        <path id="Path_66" data-name="Path 66" d="M468.892,1024.6l14.865-4.281,39.958-1.784,10.584,4.281-12.962-.832-17.719.832-20.692,4.638-17.324.314Z" transform="translate(-244.12 -534.034)" fill="#fff"/>
        <path id="Path_67" data-name="Path 67" d="M649.253,1044.108l-14.627-12.963-21.406-10.584-25.449-2.022,10.584,4.281,22.79,8.443,11.1,6.778,12.487,10.465Z" transform="translate(-308.176 -534.034)" fill="#fff"/>
        <path id="Path_68" data-name="Path 68" d="M543.3,1062.209l25.435-4.419,21.006,3.881.637,8.881-4.443,12.049-9.828,7.611-11.417,1.27-6.346-1.584-6.022-3.173-8.881-10.465Z" transform="translate(-284.859 -554.613)" fill="#fff"/>
        <path id="Path_69" data-name="Path 69" d="M321.337,1082.011l64.4-74.721-2.935,14.585,3.962,56.293-32.5-7.3-23.466,28.7-23.109,23.784,10.874-36.7Z" transform="translate(-161.326 -528.135)" fill="#fff"/>
        <path id="Path_70" data-name="Path 70" d="M499.46,1098.258l-9.833-13.638-15.7,34.093,28.541,9.352L489.152,1115.7l8.562-11.1Z" transform="translate(-248.488 -568.681)" fill="#fff"/>
        <path id="Path_71" data-name="Path 71" d="M465.6,1037.95l19.66,22.2-15.7,34.092Z" transform="translate(-244.12 -544.211)" fill="#fff"/>
        <path id="Path_72" data-name="Path 72" d="M525.676,1113.29l23.466,8.244.319,4.124-4.2,13.2-2.3-10.032,3.33-5.39-5.427-.395-3.568,7.73,1.7-8.13-5.39-.633-9.675-2.378Z" transform="translate(-274.703 -583.712)" fill="#fff"/>
        <path id="Path_73" data-name="Path 73" d="M505.93,1149.95l22.833,9.2,17.286.475-26.8,2.693Z" transform="translate(-265.266 -602.934)" fill="#fff"/>
        <path id="Path_74" data-name="Path 74" d="M571.531,1165.388l19.979-5.39.794-2.378-38.374,5.551,17.286.475Z" transform="translate(-290.433 -606.955)" fill="#fff"/>
        <path id="Path_75" data-name="Path 75" d="M676.773,1091.95l15.222,1.589-4.6,6.022-13.795,1.9Z" transform="translate(-353.177 -572.524)" fill="#fff"/>
        <path id="Path_76" data-name="Path 76" d="M640.93,1065.95l18.714,12.368,15.222,1.589-16.492-13.162Z" transform="translate(-336.048 -558.892)" fill="#fff"/>
        <path id="Path_77" data-name="Path 77" d="M576.93,1118.734l25.687-2.535,13.005-5.708,21.087-2.54-12.049,5.394Z" transform="translate(-302.492 -580.913)" fill="#fff"/>
        <path id="Path_78" data-name="Path 78" d="M592,1126.466l6.74,7.692-1.827-7.849,13.481-4.819,14.209-3.33-21.982,3.392-25.687,2.535,2,8.881-.1-4.6,4.919-.575,2.554,8.03,1.132-8.8.357-.357,2.079,8.025Z" transform="translate(-302.492 -586.266)" fill="#fff"/>
        <path id="Path_79" data-name="Path 79" d="M539.93,1042.182v-5.865l4.6,4.438,1.427-.319-1.427-6.816,4.281,5.708,2.06-1.427-.476-3.963,4.443,6.184,4.6-1.589,7.535,6.583-25.435,4.419Z" transform="translate(-283.092 -541.941)" fill="#fff"/>
        <path id="Path_80" data-name="Path 80" d="M582.519,1030.29v6.184l2.378-.162,1.265-3.963,1.9,5.552,6.184-.638,2.064-6.66.157,7.3,2.06-.476,1.589-4.124v4.914l.79.637,1.427-3.967.637,4.756,6.5,7.611-21.006-3.882-7.535-6.583Z" transform="translate(-304.589 -540.195)" fill="#fff"/>
        <path id="Path_81" data-name="Path 81" d="M630.406,1043.4l1.27.794-.476,1.9,3.487,1.741.638-3.168-.319-2.379,1.584,1.741.476,5.076,3.016.319.951-3.806,1.584,5.233.633-5.551,1.589,5.39,7.768,3.648-17.443-.794-5.233-7.449Z" transform="translate(-330.281 -546.486)" fill="#fff"/>
        <path id="Path_82" data-name="Path 82" d="M307.69,1020.592l13.647-41.347,64.4-74.721,30.691-30.953,42.122-35.1,48.958-13.153,42.1-11.312,67.952-2.716,54.366,28.541L776.518,944.958,665.245,857.237,599.6,829.414,522.544,833.7l-72.062,37.1L387.7,925.022l-51.374,65.64-11.416,42.1,1.812,74.812-19.028-86.979" transform="translate(-161.326 -425.37)" fill="#fff"/>
      </g>
    </g>
  </g>
  <g id="Me_wpap-2" data-name="Me_wpap" transform="translate(11 9.184)">
    <g id="Layer_2-2" data-name="Layer 2">
      <g id="Layer_4-2" data-name="Layer 4">
        <path id="Path_1-2" data-name="Path 1" d="M225.119,947.745l-30.211,11.083-20.319-10.16-20.319-36.02,6.465-27.708,61.881-66.5,50.8-54.492L347.3,724.234l102.52-31.4,86.818-5.542,56.34,35.1,84.971,45.256,36.02,45.256,19.4,36.02,3.694,31.4-16.625,13.854-29.555-3.168L225.119,947.745" transform="translate(-83.028 -369.9)" fill="#0b3150"/>
        <path id="Path_2-2" data-name="Path 2" d="M454.15,837.677l-40.892,34.076-29.8,30.049-65.215,77.051-10.557,35.628,53.426,189.135L514.885,1317.9l104.593-15.235,35.327-26.323,72.729-96.281,38.094-81.734-.693-58.187,8.516-82.4-98.825-105.2L661.3,839,608.52,811.29l-65.968,2.637-40.874,10.982Z" transform="translate(-165.599 -436.637)" fill="#fae3ad"/>
        <path id="Path_3-2" data-name="Path 3" d="M948.27,1054.787l6.927,5.772,45.718,7.62,24.014-6.775,12.93-11.393,1.228-10.464-6.465-.31-12.312-4.618-1.847.309-44.333,3.385-11.7,8Z" transform="translate(-510.359 -556.833)" fill="#fff"/>
        <path id="Path_4-2" data-name="Path 4" d="M319.568,994.689l-1.321-15.835,80.487-95,14.524-12.1,40.892-34.076,47.528-12.769,40.874-10.982,65.968-2.637L661.3,839l51.458,51.458,46.18,44.859,14.514,22.43-2.641,32.986,14.514,25.067-5.278,32.986-19.793-5.279,5.278,58.057-44.859,92.36-58.053,77.846L626.992,1300.8l-121.384,17.151-44.864-27.708-95-75.209-39.585-116.11-18.472-84.44Z" transform="translate(-165.599 -436.637)" fill="none"/>
        <path id="Path_5-2" data-name="Path 5" d="M307.69,1119.991l18.791,19.432,3.639-42.522,22.785-27.842,31.555,7.079,27.708,9.084,26.013-2.618-33.711,5.389,34.021-3.694,19.4-5.232,18.167-13.24-17.4,10.931-37.253,5.389-22.166-8.927,8.312-10.774,9.388,2.309,5.237.61-2.618,10.469,4.466-9.7h5.232l-3.233,5.232,2.309,10.774,4-13.854,2.157,7.079-.614-6.927,4.618-.309,2.923,8.927.771-10.469,2.461,8.927,2-8.927,7.236,8.474-2.461-8.622,3.08-1.076,9.85-3.233,5.389-1.385,8.622-1.695,11.693-5.232,4.466-5.851-16.011-12.778-7.541-3.538-1.538-6.775-.614,6.156-1.695-5.542-.771,4.927-2.923-.309-.462-4.928-1.538-1.695.309,2.309-.614,2.461-3.385-1.076.462-1.847-1.385-1.695-.309,3.542-1.233-.152-.309-6.156-1.847,4.77h-.614l.771-6.617-3.233,5.851-1.076.462.309-8.927-2.618,7.7-6,.614-2-6.313-.924,5.389-1.847-.614-.152-7.851-1.847,8.927-4.466.771-4.77-6.465s.924,4.618.924,5.08-2,1.385-2,1.385l-4.77-6.617,1.986,7.694-1.385.309-4.466-4.927v6.313l-34.326-6.313,2.849-14.163-36.893,44.143-25.63,28.4-4.156,26.322Z" transform="translate(-165.599 -542.146)" fill="#231f20"/>
        <path id="Path_6-2" data-name="Path 6" d="M624.711,840.78l3.237,6.47,12.238,7.158-15.932,21.936-24.014-7.62-8.312,13.392,22.628,22.166-7.158,3.464-7.62-4.387L582,907.515l-42.486-16.394-3.223-3.5,40.892-34.076Z" transform="translate(-288.632 -452.508)" fill="#0b3150"/>
        <path id="Path_7-2" data-name="Path 7" d="M936.27,1037.1l16.93-16.625,6.775-3.385-3.385-4,4.923,3.694,3.08-1.538-5.232-6.465,8,5.542,1.233-1.538-4.618-4.618,6.77,4.309.619-1.538-3.694-5.237,6.77,4.313,1.542-2.157-3.39-4.927,6.465,5.542,4.927-.3-1.233-7.084,5.851,6.16V998.62l2.461,7.079,1.542-2.461,3.076,5.232,7.389-4.309-.3,3.08,8.312,1.228,9.541.619,7.084,1.228,1.847-2.461,1.847,6.156,5.542-2.771,2.461-7.079,1.538,5.232-4.309,5.237,5.851-3.08,3.385-1.538-5.542,6.465,4,.614,2.462-5.232-.924,7.389,5.542-5.237-4.308,5.851,5.542-3.385-2.466,4,5.237-2.461-3.08,5.542,11.392-1.538-15.7,5.542,5.232,4,.924,11.7-4-10.16-5.542-6.161-7.08,1.847,7.7,2.156,3.694,7.389-6.465-6.465h-6.774l7.079,4.309,2.771,6.16-6.156-5.851-4.618-1.233,3.694,3.08.614,2.156-4.309-3.39-2.771-.614-5.232,3.385,7.389,2.466.923,5.232-3.08-3.694-8.312-1.538-2.461,1.538,5.232,8.622-6.775-7.084-4.618,1.233,4,8.927-5.851-7.08h-2.771l4,6.775-.924,2.152-4.308-7.694h-3.08l.309,7.694-1.847-6.77h-3.39v7.389l-2.152-7.389-3.389-.309.923,6.156-3.694-5.232h-2.462l-.923,8.622-1.847-8.313-3.695-.924-1.847,8.617-.614-9.85h-3.39l-4.618,7.7,1.847-9.236-24.628-3.695-8-4.618h14.778l14.468,4.923,22.476,4.313,24.014-6.774,12.93-11.393,1.228-10.464-6.465-.309-12.312-4.618-1.847.309-4,19.7-8.927,8.622-11.7,2.156-17.549-10.469-2.152-16.625-11.7,8,.924,6.775-9.541,3.385Z" transform="translate(-503.901 -537.458)" fill="#0b3150"/>
        <path id="Path_8-2" data-name="Path 8" d="M937.6,1020.536l10.159-2.461L957,1006.068l13.545-7.084,7.7-2.771,19.086-2.461,24.014.309,22.785,8.927,4-.614L1022.571,991.9l-26.17-.614-20.01,2.771-10.16,3.695-12.007,6.465Z" transform="translate(-504.617 -533.513)" fill="#044d67"/>
        <path id="Path_9-2" data-name="Path 9" d="M963.6,1103.29l22.781,14.778,38.486,6.156-38.177-7.7Z" transform="translate(-518.61 -593.791)" fill="#231f20"/>
        <path id="Path_10-2" data-name="Path 10" d="M725.582,1007.29l25.4,20.781-18.472,36.021-15.24,5.542,8.312-31.864Z" transform="translate(-386.035 -542.124)" fill="#0b3150"/>
        <path id="Path_11-2" data-name="Path 11" d="M739.835,1066.29l1.385,153.317-12.468-4.618-24.014,7.85,18.472-11.545-5.08-19.4-18.01-2.309-7.851,10.621,8.774-45.718,22.166-25.4,10.621-28.631-26.784,21.7,5.08-18.934,20.781-18.934Z" transform="translate(-372.58 -573.878)" fill="#0b3150"/>
        <path id="Path_12-2" data-name="Path 12" d="M852.27,1407.3l19.4-14.316,12.007-3.695,17.548,5.08-.462,6.927-14.316,6.465,9.7-7.389-17.087-3.694-9.236.924Z" transform="translate(-458.692 -747.717)" fill="#231f20" stroke="#fff" stroke-miterlimit="10" stroke-width="1"/>
        <path id="Path_13-2" data-name="Path 13" d="M717.27,1405.141l13.392-6.465,15.239-1.385L763.45,1409.3l6,2.309L761.6,1415.3l-17.548-6.927Z" transform="translate(-386.035 -752.022)" fill="#231f20" stroke="#fff" stroke-miterlimit="10" stroke-width="1"/>
        <path id="Path_14-2" data-name="Path 14" d="M776.783,1108.979l-10.621-16.689,1.847,43.871-5.08,44.794-6,64.652-16.163,47.565-43.409,73.888-24.937-11.083-29.093,22.629-.924,28.17-58.649,24.937-56.339,2.771-29.555-21.243-18.01-36.02,20.781-.924,28.632-4.618,31.864,5.542,35.559-4.156,19.4-20.319-33.25,9.236-22.628-.462-21.243,1.847-37.406-13.854-20.319-19.857,37.868-9.7,38.329,2.771,23.552-4.618h31.4l35.1,5.541,2.309-6.927-37.868-6.466-29.555-12.006-27.708,6.927-22.628-3.694-35.559,12.469,23.09-10.621,18.472-9.7,18.472,2.771,29.555-.924,4.618,5.08h12.007l31.4,12.931,24.937,13.392,10.621,18.934,12.469-14.778-1.385-21.7-26.323-17.548-50.8-19.857-35.559-16.625-12.93,12.007-4.618-7.389H538.495l-8.774-9.7-40.638-6-3.694-22.166-3.233,25.4,39.715,10.16L489.082,1284.4l-43.871,3.232-20.781,14.778L392.1,1289.94l-47.565-140.849-3.233-28.632-19.728,9.629,1.321,15.835-8.326,12.9-.693,19.4,24.244,98.354,26.323,78.275,46.406,45.714,68.577,50.567,38.786,18.005L622.81,1453.9l35.328-26.322,72.729-96.28,38.094-81.734-.693-58.187Z" transform="translate(-168.93 -587.871)" fill="#0b3150"/>
        <path id="Path_15-2" data-name="Path 15" d="M506.93,1066.682l9.545,13.24,22.781,8,24.937-2.461,12.626-5.542,7.079-.619,3.08-9.236-18.167-12.007-24.014-6.77-21.072,7.292-2.942,1.021Z" transform="translate(-272.83 -565.805)" fill="#fff" stroke="#231f20" stroke-miterlimit="10" stroke-width="1"/>
        <path id="Path_16-2" data-name="Path 16" d="M575.15,1085.768l4-3.075,5.542-4.313,4.313-11.7-.619-8.622-24.014-6.77-21.072,7.292.138,13.642,8.622,10.16,5.846,3.08,6.16,1.538Z" transform="translate(-292.404 -565.805)" stroke="#231f20" stroke-miterlimit="10" stroke-width="1"/>
        <path id="Path_17-2" data-name="Path 17" d="M1300.27,1183.32l30.169-22.476,6.775-29.246-29.555-3.168Z" transform="translate(-699.806 -607.322)" fill="#0b3150"/>
        <path id="Path_18-2" data-name="Path 18" d="M242.27,1254.344l9.236,15.7,33.25,10.16-8.719-43.834Z" transform="translate(-130.39 -665.415)" fill="#0b3150"/>
        <path id="Path_19-2" data-name="Path 19" d="M132.609,568.328l6.812-68.9-12.469-34.64-15.244-62.348-9.7-142.71,9.873-23.385,50.567-43.64,10.39-30.474,30.474-30.479h37.406l22.859-7.62,111.381-18.2L532.911,99.01l41.673,25.819,7.62,18.01,30.479,2.078,83.724,59.392,23.552,167.652L705.24,532.307l-19.4-36.02-36.02-45.256-84.971-45.256-56.34-35.1L421.7,376.219l-102.519,31.4-73.888,39.715Z" transform="translate(-54.902 -53.287)" fill="#7096a0" stroke="#0b3150" stroke-miterlimit="10" stroke-width="3"/>
        <path id="Path_20-2" data-name="Path 20" d="M47.108,206.447l9.873-23.386L84.689,159.51l22.859-20.088,10.39-30.474,30.474-30.479h37.406l9.7-5.542,13.161-2.078-5.006-29.283L138.554,0l-95.6,5.542L0,59.577,2.771,162.11Z" fill="#0b3150"/>
        <path id="Path_21-2" data-name="Path 21" d="M1035.1,57.025l41.673,25.819,7.62,18.01,30.479,2.078,83.724,59.392-30.483-95.6L1096.067,21l-34.64,11.088Z" transform="translate(-557.092 -11.302)" fill="#0b3150"/>
        <path id="Path_22-2" data-name="Path 22" d="M435.38,208.024l76.192,33.245,65.109,4.156,71.343-31.86L679.889,191.4,659.8,167.847,559.364,160.92l-75.5,14.547Z" transform="translate(-234.322 -86.607)" fill="#0b3150"/>
        <path id="Path_23-2" data-name="Path 23" d="M753.22,505.9q.264,3.371.462,6.747c.143,2.249.245,4.5.365,6.747l.3,6.752.245,6.751v-.083l.886,5.713.85,5.717q.429,2.859.822,5.722c.268,1.907.536,3.814.781,5.726l-.623-.462c2.771-.416,5.542-.8,8.345-1.187l4.179-.545q2.092-.268,4.188-.5-2.06.462-4.124.882l-4.133.841c-2.771.54-5.514,1.076-8.28,1.584l-.531.1-.1-.549c-.333-1.9-.637-3.8-.951-5.7s-.623-3.805-.924-5.708l-.877-5.7-.845-5.717v-.083l-.1-6.756-.051-6.756v-6.756C753.1,510.416,753.16,508.154,753.22,505.9Z" transform="translate(-405.319 -272.276)" fill="#231f20"/>
        <path id="Path_24-2" data-name="Path 24" d="M508.87,531.4c4.1,1.958,8.174,3.976,12.256,5.971s8.137,4.05,12.205,6.073,8.137,4.05,12.182,6.114,8.109,4.106,12.15,6.184l-.088-.037q8.5,2.914,16.971,5.893l8.474,2.978,8.465,3-.166-.032,17.308.924,8.65.508q4.327.254,8.65.545-4.336-.046-8.668-.148l-8.663-.185-17.327-.462h-.078l-.088-.028-8.506-2.886-8.5-2.909q-8.493-2.919-16.971-5.883h-.088q-6.059-3.122-12.094-6.285c-4.031-2.092-8.044-4.226-12.062-6.354s-8.04-4.239-12.039-6.4S512.851,533.6,508.87,531.4Z" transform="translate(-273.874 -286)" fill="#231f20"/>
        <path id="Path_25-2" data-name="Path 25" d="M820.86,569.728c2.013-1.062,4.055-2.069,6.1-3.08s4.092-1.986,6.151-2.956,4.124-1.916,6.188-2.877l6.22-2.817-.111.06,5.542-3.777c1.847-1.238,3.722-2.5,5.606-3.694s3.764-2.438,5.652-3.644,3.8-2.387,5.731-3.533c-1.759,1.385-3.556,2.738-5.348,4.087s-3.607,2.664-5.426,3.976-3.648,2.6-5.477,3.907l-5.542,3.842-.051.037-.06.028-6.248,2.738c-2.092.887-4.156,1.8-6.28,2.665s-4.207,1.736-6.318,2.586S823,568.943,820.86,569.728Z" transform="translate(-441.787 -292.464)" fill="#231f20"/>
        <path id="Path_26-2" data-name="Path 26" d="M321.431,239.967l-4.849-14.547-16.625,1.385-16.625,8.312-13.854,15.239,2.771,4.844-8.312,3.463-2.771,7.62-9.005,16.625-7.615,12.469-4.156,35.328,11.083,11.079-4.156,31.171,1.385,9.005-2.771,23.552,1.385,27.7,8.308,18.01,20.781,12.469,15.932,1.385,19.4-6.927,20.088-10.391-22.166-16.625-20.088-39.479-11.083-33.25,4.849-47.792,18.01-45.025Z" transform="translate(-129.378 -121.321)" fill="#0b3150"/>
        <path id="Path_27-2" data-name="Path 27" d="M1072.277,226.237l24.24,33.938,20.088,38.1,3.464,26.323-10.391,42.25-18.01,34.635-26.318,24.24,59.568,11.776,28.4-2.771,24.933-24.932,6.927-36.713-9-45.714-22.855-51.952-23.552-42.943L1107.6,216.54l-19.4-7.62Z" transform="translate(-573.372 -112.441)" fill="#0b3150"/>
        <path id="Path_28-2" data-name="Path 28" d="M327.729,357.435l-4.849-17.318,8.312-22.859,14.547-4.849Z" transform="translate(-173.774 -168.139)" fill="none" stroke="#fff" stroke-miterlimit="10" stroke-width="4"/>
        <path id="Path_29-2" data-name="Path 29" d="M1108.84,283.92l13.161.693,18.01,12.464,5.542,18.01-5.542,23.552-20.088-38.1Z" transform="translate(-596.778 -152.806)" fill="none" stroke="#fff" stroke-miterlimit="10" stroke-width="4"/>
        <path id="Path_30-2" data-name="Path 30" d="M948.345,852.543,933.567,866.4l-44.028,12.316-39.715,14.468L839.36,874.709,852.6,826.372,816.27,813.927l65.968-2.637L935.017,839Z" transform="translate(-439.317 -436.637)" fill="#0b3150"/>
        <path id="Path_31-2" data-name="Path 31" d="M694.27,945.4l1.538-11.083,5.851-7.7-4,12.007V949.4Z" transform="translate(-373.656 -498.707)" fill="#231f20" stroke="#fff" stroke-miterlimit="10" stroke-width="1"/>
        <path id="Path_32-2" data-name="Path 32" d="M681.6,938.27l2.157-16.32.923,18.781Z" transform="translate(-366.838 -496.194)" fill="#231f20" stroke="#fff" stroke-miterlimit="10" stroke-width="1"/>
        <path id="Path_33-2" data-name="Path 33" d="M671.6,930.423l2.156-12.007,4-2.466-3.385,5.851,1.847,13.24Z" transform="translate(-361.456 -492.965)" fill="#231f20" stroke="#fff" stroke-miterlimit="10" stroke-width="1"/>
        <path id="Path_34-2" data-name="Path 34" d="M690.93,932.266l1.233-11.7,7.7-.619-5.851,3.08-2.157,13.544Z" transform="translate(-371.859 -495.118)" fill="#231f20" stroke="#fff" stroke-miterlimit="10" stroke-width="1"/>
        <path id="Path_35-2" data-name="Path 35" d="M663.6,922.78l1.538-7.079,8.312-3.08-7.389,4.309-.3,10.469Z" transform="translate(-357.15 -491.173)" fill="#231f20" stroke="#fff" stroke-miterlimit="10" stroke-width="1"/>
        <path id="Path_36-2" data-name="Path 36" d="M735.055,876.62l-8.622,7.7L719.658,899.1l1.542-7.084-5.851,8.622,1.538-8.622-4.618,9.236-4,8.931,1.538,12.621,2.156-6.465v7.7l1.847-15.4,2.461-6.465L714.735,918.8l3.076-16.625-.3,15.4,6.77-13.549L720.891,918.8l5.542-13.235-2.461,9.541,4.308.619,5.542-12.626,2.771-.924,3.08-6.465-4.313,4.618-3.385.309,4.309-9.236-3.694,2.157,8.313-12.931-11.083,10.464-7.694,11.393,8.312-15.087Z" transform="translate(-381.191 -471.798)" fill="#231f20" stroke="#fff" stroke-miterlimit="10" stroke-width="1"/>
        <path id="Path_37-2" data-name="Path 37" d="M799.094,914.62l-2.771,8.926-5.542,5.542-5.851,11.7,6.16-14.164,4-3.08Z" transform="translate(-422.45 -492.249)" fill="#231f20" stroke="#fff" stroke-miterlimit="10" stroke-width="1"/>
        <path id="Path_38-2" data-name="Path 38" d="M822.475,904.62l-5.542,8.312-2.157,6.774-1.228,9.85-.619-9.545,1.773-6.193,1.963-5.311Z" transform="translate(-437.519 -486.867)" fill="#231f20" stroke="#fff" stroke-miterlimit="10" stroke-width="1"/>
        <path id="Path_39-2" data-name="Path 39" d="M819.945,931.543l-.693,6.234-1.732,3.81,5.2-8.659-.693-5.888Z" transform="translate(-439.99 -498.933)" fill="#231f20" stroke="#fff" stroke-miterlimit="10" stroke-width="1"/>
        <path id="Path_40-2" data-name="Path 40" d="M813.27,989.1l.462-8.312.231,9.467Z" transform="translate(-437.702 -527.862)" fill="#231f20" stroke="#fff" stroke-miterlimit="10" stroke-width="1"/>
        <path id="Path_41-2" data-name="Path 41" d="M837.2,967.106l-5.542-9.7.462-4.618-1.847,5.773Z" transform="translate(-446.852 -512.792)" fill="#231f20" stroke="#fff" stroke-miterlimit="10" stroke-width="1"/>
        <path id="Path_42-2" data-name="Path 42" d="M830.079,982.95l-.231-5.311-2.078-4.849,5.08,7.389-2.078-1.154Z" transform="translate(-445.507 -523.556)" fill="#231f20" stroke="#fff" stroke-miterlimit="10" stroke-width="1"/>
        <path id="Path_43-2" data-name="Path 43" d="M850.348,923.79l-1.154,9.929-.924-8.544Z" transform="translate(-456.539 -497.184)" fill="#231f20" stroke="#fff" stroke-miterlimit="10" stroke-width="1"/>
        <path id="Path_44-2" data-name="Path 44" d="M842.617,921.79l-1.847.693,1.847,12.469Z" transform="translate(-452.503 -496.108)" fill="#231f20" stroke="#fff" stroke-miterlimit="10" stroke-width="1"/>
        <path id="Path_45-2" data-name="Path 45" d="M768.234,932.6v6.7h.924l4.156-6.7L783.7,924.29l-10.16,9.467-5.08,9.7-3.694,3.464,3.925-5.542-2.54-2.309Z" transform="translate(-411.6 -497.453)" fill="#231f20" stroke="#fff" stroke-miterlimit="10" stroke-width="1"/>
        <path id="Path_46-2" data-name="Path 46" d="M778.77,917.49l1.616-2.54,4.849-2.309,6.234-7.851-6.234,10.621h-2.771Z" transform="translate(-419.134 -486.958)" fill="#231f20" stroke="#fff" stroke-miterlimit="10" stroke-width="1"/>
        <path id="Path_47-2" data-name="Path 47" d="M867.27,885.252v10.621l1.847-11.083Z" transform="translate(-466.765 -476.195)" fill="#231f20" stroke="#fff" stroke-miterlimit="10" stroke-width="1"/>
        <path id="Path_48-2" data-name="Path 48" d="M859.214,916.29l-.614,9.236,1.7.924Z" transform="translate(-462.099 -493.148)" fill="#231f20"/>
        <path id="Path_49-2" data-name="Path 49" d="M859.214,942.569,858.6,955.19l1.538,1.695-.767-14.935Z" transform="translate(-462.099 -506.958)" fill="#231f20"/>
        <path id="Path_50-2" data-name="Path 50" d="M843.27,953.62l.766,5.232,5.389,6.775-4.77-7.7Z" transform="translate(-453.849 -513.239)" fill="#231f20"/>
        <path id="Path_51-2" data-name="Path 51" d="M877.27,886.29l.614,12.312,1.233-2.461Z" transform="translate(-472.147 -477.002)" fill="#231f20"/>
        <path id="Path_52-2" data-name="Path 52" d="M881.6,870.9l.462,12.316L883.6,880.6l-2-10.312Z" transform="translate(-474.478 -468.391)" fill="#231f20"/>
        <path id="Path_53-2" data-name="Path 53" d="M825.323,869.62l-4.156,4-.309,5.232L815.93,882.4l6-2.771-.152-5.237Z" transform="translate(-439.134 -468.03)" fill="#231f20"/>
        <path id="Path_54-2" data-name="Path 54" d="M793.857,890.29l-1.847,3.076-2.461-1.386v3.542l-2.618,5.694,5.542-7.232Z" transform="translate(-423.526 -479.155)" fill="#231f20"/>
        <path id="Path_55-2" data-name="Path 55" d="M822.888,891.29l-6.618,6.156.767,4.466.462-4.156Z" transform="translate(-439.317 -479.693)" fill="#231f20"/>
        <path id="Path_56-2" data-name="Path 56" d="M800.837,959.95,793.6,971.033l9.236-10.312Z" transform="translate(-427.116 -516.646)" fill="#231f20"/>
        <path id="Path_57-2" data-name="Path 57" d="M798.09,953.95l-2.461.619-5.7,8.617,6-6.618,3.08-2Z" transform="translate(-425.141 -513.416)" fill="#231f20"/>
        <path id="Path_58-2" data-name="Path 58" d="M837.888,889.62l-1.081,8.465L833.27,904.4l4.923-5.851Z" transform="translate(-448.466 -478.794)" fill="#231f20"/>
        <path id="Path_59-2" data-name="Path 59" d="M854.5,888.443l-1.228,5.694,2.309-5.846Z" transform="translate(-459.23 -478.078)" fill="#231f20"/>
        <path id="Path_60-2" data-name="Path 60" d="M851.061,904.62l-1.847.152-.614,5.541,1.695-1.228Z" transform="translate(-456.717 -486.867)" fill="#231f20"/>
        <path id="Path_61-2" data-name="Path 61" d="M782.6,890.082l.152,5.232,1.081-5.694Z" transform="translate(-421.196 -478.794)" fill="#231f20"/>
        <path id="Path_62-2" data-name="Path 62" d="M577.319,1047.633l4.387-4.271-14.2-12.584L546.724,1020.5l-24.706-1.963-38.791,1.732-14.431,4.156-3.2,3.076,34.326,6.313-17.507-6.618,20.088-4.5,17.2-.808,12.584.808,12.122,3,20.781,11.776,8.659,7.389Z" transform="translate(-250.586 -548.179)" fill="#231f20" stroke="#000" stroke-miterlimit="10" stroke-width="1"/>
        <path id="Path_63-2" data-name="Path 63" d="M255.251,1255.766l4.849,13.157,13.161,1.385,11.494,9.9-8.723-43.834-33.762,17.973Z" transform="translate(-130.39 -665.415)" fill="#d1d7e4" opacity="0.24"/>
        <path id="Path_64-2" data-name="Path 64" d="M1308.841,1169.272l10.39-7.62v-10.391l8.313-.693,1.385-13.161,8.285-5.81-29.555-3.168-7.389,54.89Z" transform="translate(-699.806 -607.322)" fill="#d1d7e4" opacity="0.24"/>
        <path id="Path_65-2" data-name="Path 65" d="M465.6,1037.595l19.086,21.552,16.8-8.1-1.556-7.139-17.507-6.617Z" transform="translate(-250.586 -558.27)" fill="#0b3150"/>
        <path id="Path_66-2" data-name="Path 66" d="M468.8,1024.428l14.431-4.156,38.791-1.732,10.275,4.156-12.584-.808-17.2.808-20.088,4.5-16.819.3Z" transform="translate(-250.586 -548.179)" fill="#0b3150"/>
        <path id="Path_67-2" data-name="Path 67" d="M647.458,1043.362l-14.2-12.584L612.476,1020.5l-24.706-1.963,10.275,4.156,22.125,8.2,10.779,6.581,12.122,10.16Z" transform="translate(-316.338 -548.179)" fill="#0b3150"/>
        <path id="Path_68-2" data-name="Path 68" d="M543.3,1062.08l24.692-4.29,20.393,3.768.619,8.622-4.313,11.7-9.541,7.389-11.083,1.233-6.16-1.538-5.846-3.08-8.622-10.159Z" transform="translate(-292.404 -569.303)" fill="#0b3150"/>
        <path id="Path_69-2" data-name="Path 69" d="M320.939,1079.829l62.523-72.539-2.849,14.159,3.847,54.649-31.555-7.084-22.781,27.865-22.434,23.09,10.557-35.628Z" transform="translate(-165.599 -542.124)" fill="#0b3150"/>
        <path id="Path_70-2" data-name="Path 70" d="M498.715,1097.86l-9.545-13.24-15.239,33.1,27.708,9.079-12.93-12.007,8.312-10.774Z" transform="translate(-255.069 -583.743)" fill="#0b3150"/>
        <path id="Path_71-2" data-name="Path 71" d="M465.6,1037.95l19.086,21.552-15.239,33.1Z" transform="translate(-250.586 -558.625)" fill="#0b3150"/>
        <path id="Path_72-2" data-name="Path 72" d="M525.625,1113.29l22.78,8,.31,4-4.078,12.815-2.235-9.74,3.233-5.232-5.269-.383-3.464,7.5,1.653-7.892-5.232-.614-9.393-2.309Z" transform="translate(-281.979 -599.173)" fill="#0b3150"/>
        <path id="Path_73-2" data-name="Path 73" d="M505.93,1149.95l22.167,8.931,16.782.462-26.018,2.614Z" transform="translate(-272.292 -618.904)" fill="#0b3150"/>
        <path id="Path_74-2" data-name="Path 74" d="M571.017,1165.161l19.4-5.233.771-2.309-37.253,5.389,16.782.462Z" transform="translate(-298.126 -623.032)" fill="#0b3150"/>
        <path id="Path_75-2" data-name="Path 75" d="M676.68,1091.95l14.778,1.542-4.466,5.846-13.392,1.847Z" transform="translate(-362.532 -587.688)" fill="#0b3150"/>
        <path id="Path_76-2" data-name="Path 76" d="M640.93,1065.95l18.167,12.007,14.778,1.542-16.011-12.778Z" transform="translate(-344.949 -573.695)" fill="#0b3150"/>
        <path id="Path_77-2" data-name="Path 77" d="M576.93,1118.419l24.937-2.461,12.626-5.542,20.472-2.466-11.7,5.237Z" transform="translate(-310.504 -596.299)" fill="#0b3150"/>
        <path id="Path_78-2" data-name="Path 78" d="M591.555,1126.223l6.544,7.468-1.773-7.62,13.087-4.678,13.794-3.233-21.34,3.293-24.937,2.461,1.944,8.622-.1-4.466,4.775-.558,2.48,7.8,1.1-8.543.346-.346,2.018,7.791Z" transform="translate(-310.504 -601.794)" fill="#0b3150"/>
        <path id="Path_79-2" data-name="Path 79" d="M539.93,1041.932v-5.693l4.466,4.308,1.385-.31-1.385-6.617,4.156,5.542,2-1.385-.462-3.847,4.313,6,4.461-1.542,7.315,6.391-24.692,4.29Z" transform="translate(-290.591 -556.295)" fill="#0b3150"/>
        <path id="Path_80-2" data-name="Path 80" d="M582.472,1030.29v6l2.309-.157,1.228-3.847,1.847,5.389,6-.619,2-6.465.152,7.084,2-.462,1.542-4v4.771l.767.619,1.385-3.851.619,4.618,6.308,7.389-20.393-3.768-7.315-6.391Z" transform="translate(-312.657 -554.503)" fill="#0b3150"/>
        <path id="Path_81-2" data-name="Path 81" d="M630.392,1043.366l1.233.771-.462,1.847,3.385,1.69.619-3.076-.309-2.309,1.538,1.69.462,4.927,2.928.309.924-3.695,1.538,5.08.614-5.389,1.542,5.232,7.541,3.542-16.934-.771-5.08-7.232Z" transform="translate(-339.029 -560.961)" fill="#0b3150"/>
        <path id="Path_82-2" data-name="Path 82" d="M307.69,1014.482l13.249-40.14L383.462,901.8l29.8-30.049,40.892-34.076,47.528-12.769,40.874-10.982,65.968-2.637L661.3,839,762.83,941.056,654.806,855.9l-63.728-27.011-74.807,4.156-69.958,36.016L385.36,921.7l-49.874,63.724L324.4,1026.294l1.759,72.627-18.472-84.44" transform="translate(-165.599 -436.637)" fill="#b0b8a7"/>
      </g>
    </g>
  </g>
</svg>
